<?xml version="1.0" encoding="UTF-8"?>
<svg version="1.1" xmlns="http://www.w3.org/2000/svg" width="163" height="167">
<path d="M0 0 C-0.64068711 4.20122694 -2.9523753 7.4838149 -5.1875 11 C-5.62602295 11.69424072 -6.0645459 12.38848145 -6.51635742 13.10375977 C-15.77480049 27.59836498 -25.90104795 41.48811279 -36.47705078 55.04345703 C-37.95117298 56.9372716 -39.41245165 58.84034285 -40.87109375 60.74609375 C-45.83281859 67.19154421 -50.9742797 73.35441402 -56.56103516 79.27075195 C-59.08058711 81.91586455 -59.08058711 81.91586455 -61 85 C-61.66 85 -62.32 85 -63 85 C-63 85.66 -63 86.32 -63 87 C-63.66 87 -64.32 87 -65 87 C-65.40617554 87.89295776 -65.40617554 87.89295776 -65.82055664 88.80395508 C-66.98605513 90.97403559 -68.14192966 92.39984624 -69.87109375 94.13671875 C-70.44045654 94.70994873 -71.00981934 95.28317871 -71.59643555 95.8737793 C-72.20398682 96.47230713 -72.81153809 97.07083496 -73.4375 97.6875 C-74.05987549 98.3060083 -74.68225098 98.9245166 -75.32348633 99.56176758 C-79.93294595 104.08642304 -84.70825254 108.24350236 -89.79296875 112.23046875 C-91.98674298 113.91230163 -91.98674298 113.91230163 -93.67578125 115.73828125 C-95 117 -95 117 -97 117 C-97 117.66 -97 118.32 -97 119 C-99.02586127 120.74946941 -101.05912772 122.38318094 -103.1875 124 C-103.82461914 124.49056885 -104.46173828 124.9811377 -105.11816406 125.48657227 C-106.44013713 126.50391533 -107.76389137 127.51894777 -109.08935547 128.53173828 C-110.80281445 129.84846998 -112.50032551 131.18208073 -114.19140625 132.52734375 C-120.49275449 137.49277397 -126.96003781 142.10037555 -133.625 146.5625 C-134.4077832 147.0877124 -135.19056641 147.6129248 -135.99707031 148.15405273 C-136.73280273 148.64075439 -137.46853516 149.12745605 -138.2265625 149.62890625 C-138.88221191 150.06275635 -139.53786133 150.49660645 -140.21337891 150.94360352 C-142 152 -142 152 -145 153 C-144.57087058 147.78058869 -141.80480679 144.65877699 -138.6875 140.6875 C-137.59090502 139.25929945 -136.4945579 137.83090856 -135.3984375 136.40234375 C-134.55297363 135.30962158 -134.55297363 135.30962158 -133.69042969 134.19482422 C-131.02920952 130.73954269 -128.42307986 127.24358874 -125.8125 123.75 C-124.82170597 122.43222295 -123.83082211 121.11451344 -122.83984375 119.796875 C-120.98086555 117.31992069 -119.14063321 114.83077229 -117.31640625 112.328125 C-116.90221436 111.76383789 -116.48802246 111.19955078 -116.0612793 110.61816406 C-114.95042803 109.10288886 -113.84606707 107.5828616 -112.7421875 106.0625 C-112.16726562 105.381875 -111.59234375 104.70125 -111 104 C-110.34 104 -109.68 104 -109 104 C-108.75636719 103.43796875 -108.51273438 102.8759375 -108.26171875 102.296875 C-106.75819064 99.55980215 -104.93300252 97.54204059 -102.8125 95.25 C-102.01199219 94.37601562 -101.21148437 93.50203125 -100.38671875 92.6015625 C-99.59910156 91.74304688 -98.81148437 90.88453125 -98 90 C-96.7028227 88.54656616 -95.41055508 87.08872369 -94.125 85.625 C-93.59132812 85.01914063 -93.05765625 84.41328125 -92.5078125 83.7890625 C-90.93210444 81.97144235 -90.93210444 81.97144235 -89.4296875 79.7734375 C-88.95789063 79.18820313 -88.48609375 78.60296875 -88 78 C-87.34 78 -86.68 78 -86 78 C-86 77.34 -86 76.68 -86 76 C-85.34 76 -84.68 76 -84 76 C-83.72704102 75.40237854 -83.45408203 74.80475708 -83.17285156 74.18902588 C-82.03300132 72.0615941 -80.92785057 70.67459528 -79.234375 68.97558594 C-78.68040039 68.41530701 -78.12642578 67.85502808 -77.55566406 67.277771 C-76.95979492 66.68595032 -76.36392578 66.09412964 -75.75 65.484375 C-75.13608398 64.86854553 -74.52216797 64.25271606 -73.88964844 63.6182251 C-72.59425517 62.32147354 -71.29634356 61.02723343 -69.99609375 59.73535156 C-68.00024932 57.75024798 -66.01533274 55.75466409 -64.03125 53.7578125 C-62.77147445 52.49935789 -61.51107899 51.24152346 -60.25 49.984375 C-59.65413086 49.3844574 -59.05826172 48.78453979 -58.44433594 48.16644287 C-54.22993247 44 -54.22993247 44 -52 44 C-52 43.34 -52 42.68 -52 42 C-51.34 42 -50.68 42 -50 42 C-50 41.34 -50 40.68 -50 40 C-49.34 40 -48.68 40 -48 40 C-48 39.34 -48 38.68 -48 38 C-46.5390625 36.4921875 -46.5390625 36.4921875 -44.625 34.875 C-43.99851562 34.33617187 -43.37203125 33.79734375 -42.7265625 33.2421875 C-41 32 -41 32 -39 32 C-39 31.34 -39 30.68 -39 30 C-37.63671875 28.58984375 -37.63671875 28.58984375 -35.6875 26.9375 C-34.59115234 26.00550781 -34.59115234 26.00550781 -33.47265625 25.0546875 C-29.00417157 21.34153909 -24.51352641 17.65826622 -20 14 C-18.58654297 12.83597656 -18.58654297 12.83597656 -17.14453125 11.6484375 C-16.25121094 10.91882812 -15.35789063 10.18921875 -14.4375 9.4375 C-13.63183594 8.77621094 -12.82617188 8.11492188 -11.99609375 7.43359375 C-10 6 -10 6 -8 6 C-8 5.34 -8 4.68 -8 4 C-2.58823529 0 -2.58823529 0 0 0 Z " fill="#FDFDFD" transform="translate(152,7)"/>
<path d="M0 0 C-1.36228531 3.11162191 -2.84439034 5.0176434 -5.40625 7.234375 C-6.39818359 8.09482422 -6.39818359 8.09482422 -7.41015625 8.97265625 C-8.09980469 9.55917969 -8.78945312 10.14570312 -9.5 10.75 C-10.18964844 11.35199219 -10.87929687 11.95398438 -11.58984375 12.57421875 C-16.73820153 17 -16.73820153 17 -19 17 C-19 17.66 -19 18.32 -19 19 C-20.53195272 20.37212301 -22.12921081 21.6715446 -23.75 22.9375 C-28.0398033 26.36603005 -32.16163714 29.89101542 -36.1875 33.625 C-36.69716309 34.09679688 -37.20682617 34.56859375 -37.73193359 35.0546875 C-38.22902832 35.51488281 -38.72612305 35.97507813 -39.23828125 36.44921875 C-42.76508696 39.70665033 -46.36538379 42.86413044 -50 46 C-51.16547598 47.01940391 -52.33082893 48.03894847 -53.49609375 49.05859375 C-54.76798087 50.16434817 -56.04011815 51.2698149 -57.3125 52.375 C-57.92399902 52.91181396 -58.53549805 53.44862793 -59.16552734 54.00170898 C-61.75482306 56.24013897 -63.72001569 57.9066719 -67 59 C-67 59.66 -67 60.32 -67 61 C-68.50903877 62.35373964 -70.08412698 63.63443401 -71.6875 64.875 C-72.55761719 65.55304688 -73.42773438 66.23109375 -74.32421875 66.9296875 C-75.20722656 67.61289063 -76.09023437 68.29609375 -77 69 C-78.6689101 70.33052419 -80.33626195 71.66301411 -82 73 C-82.66 72.67 -83.32 72.34 -84 72 C-84.12233966 64.16055198 -83.77999864 56.43610319 -83.125 48.625 C-83.04636719 47.57183594 -82.96773437 46.51867187 -82.88671875 45.43359375 C-82.80292969 44.41652344 -82.71914062 43.39945313 -82.6328125 42.3515625 C-82.52283936 40.98765381 -82.52283936 40.98765381 -82.41064453 39.59619141 C-81.95739165 36.73061998 -81.38425967 34.5575124 -80 32 C-77.92797852 30.68554688 -77.92797852 30.68554688 -75.37890625 29.71875 C-73.98381836 29.17214722 -73.98381836 29.17214722 -72.56054688 28.61450195 C-71.07651367 28.06282349 -71.07651367 28.06282349 -69.5625 27.5 C-67.54241034 26.71367266 -65.52287112 25.92592963 -63.50390625 25.13671875 C-62.5411377 24.76595215 -61.57836914 24.39518555 -60.58642578 24.01318359 C-57.67724973 22.87356866 -54.83179904 21.63229774 -52 20.3125 C-43.48808335 16.36199323 -34.93996125 12.61851093 -26.0625 9.5625 C-20.14415831 7.51615813 -14.5640705 5.03558653 -8.97290039 2.23461914 C-5.62683458 0.59415856 -3.82430709 0 0 0 Z " fill="#FDFDFD" transform="translate(114,27)"/>
<path d="M0 0 C-0.26323532 4.41101166 -0.52988419 8.82180042 -0.79956055 13.23242188 C-0.89064553 14.72976229 -0.98083259 16.22715762 -1.07006836 17.72460938 C-1.19923881 19.88947727 -1.33174542 22.05412045 -1.46484375 24.21875 C-1.543396 25.51748047 -1.62194824 26.81621094 -1.70288086 28.15429688 C-1.80093018 29.42337891 -1.89897949 30.69246094 -2 32 C-2.07838608 33.08528992 -2.07838608 33.08528992 -2.15835571 34.19250488 C-2.33925954 36.14017668 -2.66113499 38.07352079 -3 40 C-5.78125 42.03125 -5.78125 42.03125 -9.5 43.5 C-10.87691908 44.07143222 -12.25319825 44.64440826 -13.62890625 45.21875 C-14.34836426 45.5075 -15.06782227 45.79625 -15.80908203 46.09375 C-19.41927528 47.58706818 -22.91862217 49.30530454 -26.4375 51 C-31.97759798 53.62664561 -37.55658555 56.13724328 -43.1875 58.5625 C-48.35299473 60.78815336 -53.42015098 63.14508567 -58.4375 65.6875 C-66.23803238 69.63668629 -66.23803238 69.63668629 -70.125 71.4375 C-70.78757812 71.74558594 -71.45015625 72.05367188 -72.1328125 72.37109375 C-74 73 -74 73 -78 73 C-76.68692628 70.10147635 -75.27315362 68.01722783 -73.03125 65.765625 C-72.46019531 65.19199219 -71.88914062 64.61835937 -71.30078125 64.02734375 C-70.70652344 63.44082031 -70.11226563 62.85429688 -69.5 62.25 C-68.90574219 61.64800781 -68.31148437 61.04601562 -67.69921875 60.42578125 C-67.12816406 59.85730469 -66.55710937 59.28882813 -65.96875 58.703125 C-65.44732422 58.18395508 -64.92589844 57.66478516 -64.38867188 57.12988281 C-63 56 -63 56 -61 56 C-61 55.34 -61 54.68 -61 54 C-60.34 54 -59.68 54 -59 54 C-59 53.34 -59 52.68 -59 52 C-57.56640625 50.58984375 -57.56640625 50.58984375 -55.5625 48.9375 C-51.41038212 45.42929345 -47.64192767 41.64549595 -43.8828125 37.72265625 C-42 36 -42 36 -40 36 C-40 35.34 -40 34.68 -40 34 C-39.34 34 -38.68 34 -38 34 C-38 33.34 -38 32.68 -38 32 C-36.49609375 30.51953125 -36.49609375 30.51953125 -34.4375 28.8125 C-31.6746132 26.46720242 -29.03320243 24.09170595 -26.5 21.5 C-23.55330963 18.50021611 -20.44677121 15.77146293 -17.25 13.04296875 C-15.4879555 11.44305682 -13.83505151 9.82578004 -12.1875 8.11328125 C-11.45805176 7.35869629 -11.45805176 7.35869629 -10.71386719 6.58886719 C-9.30589944 5.12078607 -7.91048325 3.64069865 -6.515625 2.16015625 C-4 0 -4 0 0 0 Z " fill="#FDFDFD" transform="translate(136,63)"/>
<path d="M0 0 C0.99 0.33 1.98 0.66 3 1 C0.36 2.98 -2.28 4.96 -5 7 C-4.67 5.68 -4.34 4.36 -4 3 C-3.34 3 -2.68 3 -2 3 C-2 2.34 -2 1.68 -2 1 C-1.34 0.67 -0.68 0.34 0 0 Z " fill="#F3FBF8" transform="translate(100,94)"/>
</svg>
